<?xml version="1.0" encoding="UTF-8" standalone="no"?>
<!-- Created with Inkscape (http://www.inkscape.org/) -->

<svg
   xmlns:dc="http://purl.org/dc/elements/1.1/"
   xmlns:cc="http://creativecommons.org/ns#"
   xmlns:rdf="http://www.w3.org/1999/02/22-rdf-syntax-ns#"
   xmlns:svg="http://www.w3.org/2000/svg"
   xmlns="http://www.w3.org/2000/svg"
   xmlns:sodipodi="http://sodipodi.sourceforge.net/DTD/sodipodi-0.dtd"
   xmlns:inkscape="http://www.inkscape.org/namespaces/inkscape"
   width="13.392844"
   height="158.21426"
   id="svg2"
   version="1.1"
   inkscape:version="0.48.5 r10040"
   sodipodi:docname="match.svg">
  <defs
     id="defs4">
    <filter
       inkscape:collect="always"
       id="filter3801">
      <feGaussianBlur
         inkscape:collect="always"
         stdDeviation="0.21449219"
         id="feGaussianBlur3803" />
    </filter>
    <clipPath
       clipPathUnits="userSpaceOnUse"
       id="clipPath3807">
      <path
         id="path3809"
         d="m -64.28125,0 c -2.382099,0 -4.28125,2.6416072 -4.28125,5.90625 l 0,8.90625 c 0,2.708841 1.314604,4.961607 3.125,5.65625 l 0,137.75 7.125,0 0,-137.75 c 1.810396,-0.694643 3.125,-2.947409 3.125,-5.65625 l 0,-8.90625 C -55.1875,2.6416072 -57.086651,0 -59.46875,0 l -4.8125,0 z"
         style="fill:none;stroke:none"
         inkscape:connector-curvature="0" />
    </clipPath>
  </defs>
  <sodipodi:namedview
     id="base"
     pagecolor="#ffffff"
     bordercolor="#666666"
     borderopacity="1.0"
     inkscape:pageopacity="0.0"
     inkscape:pageshadow="2"
     inkscape:zoom="2.0402348"
     inkscape:cx="-15.381919"
     inkscape:cy="34.227733"
     inkscape:document-units="px"
     inkscape:current-layer="layer1"
     showgrid="false"
     inkscape:window-width="636"
     inkscape:window-height="1039"
     inkscape:window-x="1024"
     inkscape:window-y="39"
     inkscape:window-maximized="0"
     fit-margin-top="0"
     fit-margin-left="0"
     fit-margin-right="0"
     fit-margin-bottom="0" />
  <metadata
     id="metadata7">
    <rdf:RDF>
      <cc:Work
         rdf:about="">
        <dc:format>image/svg+xml</dc:format>
        <dc:type
           rdf:resource="http://purl.org/dc/dcmitype/StillImage" />
        <dc:title></dc:title>
      </cc:Work>
    </rdf:RDF>
  </metadata>
  <g
     inkscape:label="Calque 1"
     inkscape:groupmode="layer"
     id="layer1"
     transform="translate(-291.42856,-412.71933)">
    <g
       id="g3757"
       inkscape:export-filename="/home/fauve/dev/nim/match.png"
       inkscape:export-xdpi="96"
       inkscape:export-ydpi="96">
      <rect
         ry="0"
         rx="2.8712435"
         y="432.36218"
         x="294.55356"
         height="138.57141"
         width="7.1428657"
         id="rect2985"
         style="fill:#e2ae32;fill-opacity:1;stroke:none" />
      <rect
         ry="5.8928571"
         rx="4.2998176"
         y="412.71933"
         x="291.42856"
         height="20.714294"
         width="13.392844"
         id="rect3755"
         style="fill:#e20032;fill-opacity:1;stroke:none" />
    </g>
    <g
       id="g3780"
       transform="translate(-68.571429,0)"
       inkscape:export-filename="/home/fauve/dev/nim/match-void.png"
       inkscape:export-xdpi="96"
       inkscape:export-ydpi="96">
      <path
         style="fill:#5f5f5f;fill-opacity:1;stroke:none"
         d="M -64.28125 0 C -66.663349 0 -68.5625 2.6416072 -68.5625 5.90625 L -68.5625 14.8125 C -68.5625 17.521341 -67.247896 19.774107 -65.4375 20.46875 L -65.4375 158.21875 L -58.3125 158.21875 L -58.3125 20.46875 C -56.502104 19.774107 -55.1875 17.521341 -55.1875 14.8125 L -55.1875 5.90625 C -55.1875 2.6416072 -57.086651 3.64738e-17 -59.46875 0 L -64.28125 0 z "
         transform="translate(359.99999,412.71933)"
         id="rect3782" />
      <path
         id="path3787"
         transform="translate(359.99999,412.71933)"
         d="M -64.28125 0 C -66.663349 0 -68.5625 2.6416072 -68.5625 5.90625 L -68.5625 14.8125 C -68.5625 17.521341 -67.247896 19.774107 -65.4375 20.46875 L -65.4375 158.21875 L -58.3125 158.21875 L -58.3125 20.46875 C -56.502104 19.774107 -55.1875 17.521341 -55.1875 14.8125 L -55.1875 5.90625 C -55.1875 2.6416072 -57.086651 3.64738e-17 -59.46875 0 L -64.28125 0 z "
         style="fill:none;fill-opacity:1;stroke:#1e1d19;stroke-opacity:1;filter:url(#filter3801)"
         clip-path="url(#clipPath3807)" />
    </g>
  </g>
</svg>
