<?xml version="1.0" encoding="UTF-8" standalone="no"?>
<!-- Created with Inkscape (http://www.inkscape.org/) -->

<svg
   xmlns:dc="http://purl.org/dc/elements/1.1/"
   xmlns:cc="http://creativecommons.org/ns#"
   xmlns:rdf="http://www.w3.org/1999/02/22-rdf-syntax-ns#"
   xmlns:svg="http://www.w3.org/2000/svg"
   xmlns="http://www.w3.org/2000/svg"
   xmlns:sodipodi="http://sodipodi.sourceforge.net/DTD/sodipodi-0.dtd"
   xmlns:inkscape="http://www.inkscape.org/namespaces/inkscape"
   width="11.211132"
   height="152.45369"
   id="svg2"
   version="1.1"
   inkscape:version="0.48.5 r10040"
   sodipodi:docname="match.svg">
  <defs
     id="defs4">
    <filter
       inkscape:collect="always"
       id="filter3799"
       color-interpolation-filters="sRGB">
      <feGaussianBlur
         inkscape:collect="always"
         stdDeviation="0.40912736"
         id="feGaussianBlur3801" />
    </filter>
    <clipPath
       clipPathUnits="userSpaceOnUse"
       id="clipPath3805">
      <path
         style="fill:none;stroke:none"
         d="m -159.5,6 c -1.08695,0.066622 -2.17611,0.4358375 -3.125,1.15625 -1.50716,1.21361 -2.23295,2.97098 -2.15625,4.75 0.13431,2.10415 0.2279,4.09679 0.8125,5.9375 0.9571,3.01447 0.96183,4.36998 1.3125,6.53125 l 0,134.0625 6.9375,0 0,-134.0625 c 0.35066,-2.16127 0.35554,-3.51678 1.3125,-6.53125 0.58459,-1.84071 0.68115,-3.84475 0.8125,-5.90625 0.0751,-1.30467 -0.2808,-2.63719 -1.125,-3.75 C -155.88746,6.6469938 -157.68842,5.8889638 -159.5,6 z"
         id="path3807"
         inkscape:connector-curvature="0" />
    </clipPath>
    <filter
       inkscape:collect="always"
       id="filter3852"
       x="-0.16130216"
       width="1.3226043"
       y="-0.011885831"
       height="1.0237716"
       color-interpolation-filters="sRGB">
      <feGaussianBlur
         inkscape:collect="always"
         stdDeviation="0.7549888"
         id="feGaussianBlur3854" />
    </filter>
  </defs>
  <sodipodi:namedview
     id="base"
     pagecolor="#ffffff"
     bordercolor="#666666"
     borderopacity="1.0"
     inkscape:pageopacity="0.0"
     inkscape:pageshadow="2"
     inkscape:zoom="1.4426639"
     inkscape:cx="-163.83966"
     inkscape:cy="-38.171204"
     inkscape:document-units="px"
     inkscape:current-layer="g3818"
     showgrid="false"
     inkscape:window-width="636"
     inkscape:window-height="1039"
     inkscape:window-x="896"
     inkscape:window-y="39"
     inkscape:window-maximized="0"
     fit-margin-top="0"
     fit-margin-left="0"
     fit-margin-right="0"
     fit-margin-bottom="0" />
  <metadata
     id="metadata7">
    <rdf:RDF>
      <cc:Work
         rdf:about="">
        <dc:format>image/svg+xml</dc:format>
        <dc:type
           rdf:resource="http://purl.org/dc/dcmitype/StillImage" />
        <dc:title></dc:title>
      </cc:Work>
    </rdf:RDF>
  </metadata>
  <g
     inkscape:label="Calque 1"
     inkscape:groupmode="layer"
     id="layer1"
     transform="translate(-164.06813,-418.70694)">
    <g
       transform="matrix(1.4758728,0,0,1.4758728,2611.9941,-1057.1509)"
       id="g6157">
      <rect
         ry="0"
         rx="1.8957739"
         y="1011.7937"
         x="-1657.1893"
         height="91.493477"
         width="4.7161651"
         id="rect6159"
         style="fill:#cd991d;fill-opacity:1;stroke:none" />
      <path
         id="path6161"
         style="fill:#e20030;fill-opacity:1;stroke:none"
         d="m -1657.1803,1012.4479 c -0.2376,-1.4644 -0.2453,-2.3924 -0.8938,-4.4349 -0.3961,-1.2472 -0.4605,-2.5946 -0.5515,-4.0203 -0.052,-1.2054 0.4342,-2.381 1.4554,-3.2033 1.7145,-1.30167 4.0954,-0.97477 5.3624,0.6953 0.572,0.754 0.8191,1.6529 0.7682,2.5369 -0.089,1.3968 -0.1538,2.7442 -0.5499,3.9914 -0.6484,2.0425 -0.6562,2.9705 -0.8938,4.4349 z"
         inkscape:connector-curvature="0"
         sodipodi:nodetypes="csccccscc" />
    </g>
    <g
       id="g5472"
       transform="translate(1163.601,-964.56192)">
      <rect
         style="fill:#cd991d;fill-opacity:1;stroke:none"
         id="rect4537"
         width="6.9604597"
         height="135.03273"
         x="-1081.1575"
         y="1400.6898"
         rx="2.7979212"
         ry="0" />
      <path
         style="fill:#f04928;fill-opacity:0.94117647;stroke:none"
         d="m -1084.5236,1397.3729 c -2.2419,-1.6919 -3.4489,-4.7886 -3.6607,-7.5893 -0.3662,-4.8438 2.0966,-9.5922 4.2857,-13.9286 1.5344,-3.0395 6.2214,-8.2143 6.2214,-8.2143 0,0 4.687,5.1748 6.2214,8.2143 2.1891,4.3364 4.6519,9.0847 4.2857,13.9286 -0.2118,2.8006 -1.4188,5.8973 -3.6607,7.5893 -1.8083,1.3646 -5.9821,0.6336 -6.8464,0.5446 -0.8643,0.089 -5.0381,0.8201 -6.8464,-0.5446 z"
         id="path5378"
         inkscape:connector-curvature="0"
         sodipodi:nodetypes="ccccccccc" />
      <path
         sodipodi:nodetypes="ccccccccc"
         inkscape:connector-curvature="0"
         id="path5380"
         d="m -1082.528,1397.7517 c -1.5883,-0.9802 -2.4436,-2.7743 -2.5937,-4.397 -0.2594,-2.8065 1.4855,-5.5576 3.0364,-8.07 1.0873,-1.761 4.4081,-6.3776 4.4081,-6.3776 0,0 3.3208,4.6166 4.4081,6.3776 1.5509,2.5124 3.2958,5.2635 3.0364,8.07 -0.1501,1.6226 -1.0054,3.4167 -2.5937,4.397 -1.2811,0.7906 -4.2384,0.3671 -4.8508,0.3155 -0.6124,0.051 -3.5697,0.4752 -4.8508,-0.3155 z"
         style="fill:#f9953b;fill-opacity:1;stroke:none" />
      <path
         id="path5388"
         transform="translate(50.9375,160.21875)"
         d="m -1128.8438,1228.9062 c -0.8013,0.044 -1.5937,0.3222 -2.2812,0.8438 l -0.094,0.062 c -1.6747,1.3504 -2.0311,3.7243 -0.875,5.5 l 0,6 6.9688,0 0,-6 c 0.9274,-1.4313 0.934,-3.3441 -0.1562,-4.7813 -0.8693,-1.1459 -2.2269,-1.6983 -3.5626,-1.625 z"
         style="fill:#191512;fill-opacity:1;stroke:none"
         inkscape:connector-curvature="0" />
    </g>
    <g
       id="g3809">
      <path
         style="fill:#5f5f5f;fill-opacity:1;stroke:none"
         d="m -159.5,6 c -1.08695,0.066622 -2.17611,0.4358375 -3.125,1.15625 -1.50716,1.21361 -2.23295,2.97098 -2.15625,4.75 0.13431,2.10415 0.2279,4.09679 0.8125,5.9375 0.9571,3.01447 0.96183,4.36998 1.3125,6.53125 l 0,134.0625 6.9375,0 0,-134.0625 c 0.35066,-2.16127 0.35554,-3.51678 1.3125,-6.53125 0.58459,-1.84071 0.68115,-3.84475 0.8125,-5.90625 0.0751,-1.30467 -0.2808,-2.63719 -1.125,-3.75 C -155.88746,6.6469938 -157.68842,5.8889638 -159.5,6 z"
         id="path3803"
         transform="translate(291.42856,412.71933)"
         inkscape:connector-curvature="0" />
      <path
         clip-path="url(#clipPath3805)"
         style="fill:#5f5f5f;fill-opacity:1;stroke:#1e1d19;stroke-opacity:1;filter:url(#filter3799)"
         d="m -159.5,6 c -1.08695,0.066622 -2.17611,0.4358375 -3.125,1.15625 -1.50716,1.21361 -2.23295,2.97098 -2.15625,4.75 0.13431,2.10415 0.2279,4.09679 0.8125,5.9375 0.9571,3.01447 0.96183,4.36998 1.3125,6.53125 l 0,134.0625 6.9375,0 0,-134.0625 c 0.35066,-2.16127 0.35554,-3.51678 1.3125,-6.53125 0.58459,-1.84071 0.68115,-3.84475 0.8125,-5.90625 0.0751,-1.30467 -0.2808,-2.63719 -1.125,-3.75 C -155.88746,6.6469938 -157.68842,5.8889638 -159.5,6 z"
         id="path3793"
         transform="translate(291.42856,412.71933)"
         inkscape:connector-curvature="0" />
    </g>
    <g
       id="g3856">
      <path
         id="rect3821"
         transform="translate(291.42856,412.71933)"
         d="m -81.40625,6 c -1.08695,0.066622 -2.176108,0.4358375 -3.125,1.15625 -1.50716,1.21361 -2.23295,2.97098 -2.15625,4.75 0.13431,2.10415 0.25915,4.09679 0.84375,5.9375 0.921861,2.903483 0.965879,4.283771 1.28125,6.3125 l 0,134.28125 6.96875,0 0,-134.0625 c 0.35066,-2.16127 0.35554,-3.51678 1.3125,-6.53125 0.58459,-1.84071 0.68115,-3.84475 0.8125,-5.90625 0.07512,-1.30467 -0.31205,-2.63719 -1.15625,-3.75 C -77.793706,6.6469938 -79.594666,5.8889638 -81.40625,6 z"
         style="fill:#000000;fill-opacity:1;stroke:none;filter:url(#filter3852)"
         inkscape:connector-curvature="0" />
      <g
         transform="matrix(1.4758728,0,0,1.4758728,2652.6757,-1057.1509)"
         id="g3813">
        <rect
           ry="0"
           rx="1.8957739"
           y="1011.7937"
           x="-1657.1893"
           height="91.493477"
           width="4.7161651"
           id="rect3815"
           style="fill:#cd991d;fill-opacity:1;stroke:none" />
        <path
           id="path3817"
           style="fill:#e20030;fill-opacity:1;stroke:none"
           d="m -1657.1803,1012.4479 c -0.2376,-1.4644 -0.2453,-2.3924 -0.8938,-4.4349 -0.3961,-1.2472 -0.4605,-2.5946 -0.5515,-4.0203 -0.052,-1.2054 0.4342,-2.381 1.4554,-3.2033 1.7145,-1.30167 4.0954,-0.97477 5.3624,0.6953 0.572,0.754 0.8191,1.6529 0.7682,2.5369 -0.089,1.3968 -0.1538,2.7442 -0.5499,3.9914 -0.6484,2.0425 -0.6562,2.9705 -0.8938,4.4349 z"
           inkscape:connector-curvature="0"
           sodipodi:nodetypes="csccccscc" />
      </g>
    </g>
    <g
       id="g3818">
      <path
         sodipodi:nodetypes="csccccscc"
         inkscape:connector-curvature="0"
         d="m 252.81505,437.46929 c -0.31528,-1.94309 -0.54772,-3.79668 -0.87485,-6.50684 -0.20807,-1.72384 -0.61103,-3.44273 -0.73178,-5.33447 -0.0689,-1.59943 0.57613,-3.15933 1.93114,-4.25043 2.27495,-1.72716 5.43413,-1.2934 7.1153,0.92259 0.75897,1.00048 1.08685,2.19322 1.0193,3.36618 -0.11808,1.8534 -0.48215,3.57752 -0.72965,5.29613 -0.41589,2.88794 -0.33736,3.98595 -0.65262,5.92905 z"
         style="fill:#e20030;fill-opacity:1;stroke:#000000;stroke-opacity:1;stroke-width:0.1;stroke-miterlimit:4;stroke-dasharray:none"
         id="path3008"
         inkscape:export-filename="/home/fauve/dev/nim/match-animation.png"
         inkscape:export-xdpi="96"
         inkscape:export-ydpi="96" />
      <g
         id="g3814"
         inkscape:export-filename="/home/fauve/dev/nim/match-animation.png"
         inkscape:export-xdpi="96"
         inkscape:export-ydpi="96">
        <path
           style="fill:#cd991d;fill-opacity:1;stroke:#000000;stroke-opacity:1;stroke-width:0.1;stroke-miterlimit:4;stroke-dasharray:none"
           d="m 254.99385,435.18243 4.99989,0.91901 0,133.50104 -4.99989,0.85774 z"
           id="rect3006"
           inkscape:connector-curvature="0"
           sodipodi:nodetypes="ccccc" />
        <path
           sodipodi:nodetypes="ccccc"
           inkscape:connector-curvature="0"
           id="path3043"
           d="m 254.99385,435.18243 -2.15789,1.95875 0,132.24469 2.15789,1.07435 z"
           style="fill:#a47b17;fill-opacity:1;stroke:#000000;stroke-opacity:1;stroke-width:0.1;stroke-miterlimit:4;stroke-dasharray:none" />
      </g>
      <path
         style="font-size:medium;font-style:normal;font-variant:normal;font-weight:normal;font-stretch:normal;text-indent:0;text-align:start;text-decoration:none;line-height:normal;letter-spacing:normal;word-spacing:normal;text-transform:none;direction:ltr;block-progression:tb;writing-mode:lr-tb;text-anchor:start;baseline-shift:baseline;color:#000000;fill:#000000;fill-opacity:1;stroke:none;stroke-width:0.2;marker:none;visibility:visible;display:inline;overflow:visible;enable-background:accumulate;font-family:Sans;-inkscape-font-specification:Sans"
         d="m 254.95875,428.06629 -0.0157,7.10935 0.1875,0 z"
         id="path3824"
         inkscape:connector-curvature="0"
         sodipodi:nodetypes="cccc"
         inkscape:export-filename="/home/fauve/dev/nim/match-animation.png"
         inkscape:export-xdpi="96"
         inkscape:export-ydpi="96" />
    </g>
  </g>
</svg>
