<?xml version="1.0" encoding="UTF-8" standalone="no"?>
<!-- Created with Inkscape (http://www.inkscape.org/) -->

<svg
   xmlns:dc="http://purl.org/dc/elements/1.1/"
   xmlns:cc="http://creativecommons.org/ns#"
   xmlns:rdf="http://www.w3.org/1999/02/22-rdf-syntax-ns#"
   xmlns:svg="http://www.w3.org/2000/svg"
   xmlns="http://www.w3.org/2000/svg"
   xmlns:sodipodi="http://sodipodi.sourceforge.net/DTD/sodipodi-0.dtd"
   xmlns:inkscape="http://www.inkscape.org/namespaces/inkscape"
   width="21.087084"
   height="168.08185"
   id="svg2"
   version="1.1"
   inkscape:version="0.48.5 r10040"
   sodipodi:docname="match-void.svg">
  <defs
     id="defs4">
    <clipPath
       clipPathUnits="userSpaceOnUse"
       id="clipPath3805">
      <path
         style="fill:none;stroke:none"
         d="m -159.5,6 c -1.08695,0.066622 -2.17611,0.4358375 -3.125,1.15625 -1.50716,1.21361 -2.23295,2.97098 -2.15625,4.75 0.13431,2.10415 0.2279,4.09679 0.8125,5.9375 0.9571,3.01447 0.96183,4.36998 1.3125,6.53125 l 0,134.0625 6.9375,0 0,-134.0625 c 0.35066,-2.16127 0.35554,-3.51678 1.3125,-6.53125 0.58459,-1.84071 0.68115,-3.84475 0.8125,-5.90625 0.0751,-1.30467 -0.2808,-2.63719 -1.125,-3.75 C -155.88746,6.6469938 -157.68842,5.8889638 -159.5,6 z"
         id="path3807"
         inkscape:connector-curvature="0" />
    </clipPath>
    <filter
       color-interpolation-filters="sRGB"
       inkscape:collect="always"
       id="filter3799">
      <feGaussianBlur
         inkscape:collect="always"
         stdDeviation="0.40912736"
         id="feGaussianBlur3801" />
    </filter>
  </defs>
  <sodipodi:namedview
     id="base"
     pagecolor="#ffffff"
     bordercolor="#666666"
     borderopacity="1.0"
     inkscape:pageopacity="0.0"
     inkscape:pageshadow="2"
     inkscape:zoom="1.979899"
     inkscape:cx="40.757901"
     inkscape:cy="153.54992"
     inkscape:document-units="px"
     inkscape:current-layer="layer1"
     showgrid="false"
     fit-margin-top="0"
     fit-margin-left="0"
     fit-margin-right="0"
     fit-margin-bottom="0"
     inkscape:window-width="477"
     inkscape:window-height="1039"
     inkscape:window-x="768"
     inkscape:window-y="39"
     inkscape:window-maximized="0" />
  <metadata
     id="metadata7">
    <rdf:RDF>
      <cc:Work
         rdf:about="">
        <dc:format>image/svg+xml</dc:format>
        <dc:type
           rdf:resource="http://purl.org/dc/dcmitype/StillImage" />
        <dc:title></dc:title>
      </cc:Work>
    </rdf:RDF>
  </metadata>
  <g
     inkscape:label="Calque 1"
     inkscape:groupmode="layer"
     id="layer1"
     transform="translate(-398.75606,-454.84482)">
    <g
       id="g5472"
       transform="translate(1486.9768,-912.79588)">
      <rect
         style="fill:#cd991d;fill-opacity:1;stroke:none"
         id="rect4537"
         width="6.9604597"
         height="135.03273"
         x="-1081.1575"
         y="1400.6898"
         rx="2.7979212"
         ry="0" />
      <path
         style="fill:#f04928;fill-opacity:0.94117647;stroke:none"
         d="m -1084.5236,1397.3729 c -2.2419,-1.6919 -3.4489,-4.7886 -3.6607,-7.5893 -0.3662,-4.8438 2.0966,-9.5922 4.2857,-13.9286 1.5344,-3.0395 6.2214,-8.2143 6.2214,-8.2143 0,0 4.687,5.1748 6.2214,8.2143 2.1891,4.3364 4.6519,9.0847 4.2857,13.9286 -0.2118,2.8006 -1.4188,5.8973 -3.6607,7.5893 -1.8083,1.3646 -5.9821,0.6336 -6.8464,0.5446 -0.8643,0.089 -5.0381,0.8201 -6.8464,-0.5446 z"
         id="path5378"
         inkscape:connector-curvature="0"
         sodipodi:nodetypes="ccccccccc" />
      <path
         sodipodi:nodetypes="ccccccccc"
         inkscape:connector-curvature="0"
         id="path5380"
         d="m -1082.528,1397.7517 c -1.5883,-0.9802 -2.4436,-2.7743 -2.5937,-4.397 -0.2594,-2.8065 1.4855,-5.5576 3.0364,-8.07 1.0873,-1.761 4.4081,-6.3776 4.4081,-6.3776 0,0 3.3208,4.6166 4.4081,6.3776 1.5509,2.5124 3.2958,5.2635 3.0364,8.07 -0.1501,1.6226 -1.0054,3.4167 -2.5937,4.397 -1.2811,0.7906 -4.2384,0.3671 -4.8508,0.3155 -0.6124,0.051 -3.5697,0.4752 -4.8508,-0.3155 z"
         style="fill:#f9953b;fill-opacity:1;stroke:none" />
      <path
         id="path5388"
         transform="translate(50.9375,160.21875)"
         d="m -1128.8438,1228.9062 c -0.8013,0.044 -1.5937,0.3222 -2.2812,0.8438 l -0.094,0.062 c -1.6747,1.3504 -2.0311,3.7243 -0.875,5.5 l 0,6 6.9688,0 0,-6 c 0.9274,-1.4313 0.934,-3.3441 -0.1562,-4.7813 -0.8693,-1.1459 -2.2269,-1.6983 -3.5626,-1.625 z"
         style="fill:#191512;fill-opacity:1;stroke:none"
         inkscape:connector-curvature="0" />
    </g>
  </g>
</svg>
