<?xml version="1.0" encoding="UTF-8" standalone="no"?>
<!-- Created with Inkscape (http://www.inkscape.org/) -->

<svg
   xmlns:dc="http://purl.org/dc/elements/1.1/"
   xmlns:cc="http://creativecommons.org/ns#"
   xmlns:rdf="http://www.w3.org/1999/02/22-rdf-syntax-ns#"
   xmlns:svg="http://www.w3.org/2000/svg"
   xmlns="http://www.w3.org/2000/svg"
   xmlns:sodipodi="http://sodipodi.sourceforge.net/DTD/sodipodi-0.dtd"
   xmlns:inkscape="http://www.inkscape.org/namespaces/inkscape"
   width="11.202777"
   height="152.44817"
   id="svg2"
   version="1.1"
   inkscape:version="0.48.5 r10040"
   sodipodi:docname="Nouveau document 1">
  <defs
     id="defs4">
    <clipPath
       clipPathUnits="userSpaceOnUse"
       id="clipPath3805">
      <path
         style="fill:none;stroke:none"
         d="m -159.5,6 c -1.08695,0.066622 -2.17611,0.4358375 -3.125,1.15625 -1.50716,1.21361 -2.23295,2.97098 -2.15625,4.75 0.13431,2.10415 0.2279,4.09679 0.8125,5.9375 0.9571,3.01447 0.96183,4.36998 1.3125,6.53125 l 0,134.0625 6.9375,0 0,-134.0625 c 0.35066,-2.16127 0.35554,-3.51678 1.3125,-6.53125 0.58459,-1.84071 0.68115,-3.84475 0.8125,-5.90625 0.0751,-1.30467 -0.2808,-2.63719 -1.125,-3.75 C -155.88746,6.6469938 -157.68842,5.8889638 -159.5,6 z"
         id="path3807"
         inkscape:connector-curvature="0" />
    </clipPath>
    <filter
       color-interpolation-filters="sRGB"
       inkscape:collect="always"
       id="filter3799">
      <feGaussianBlur
         inkscape:collect="always"
         stdDeviation="0.40912736"
         id="feGaussianBlur3801" />
    </filter>
  </defs>
  <sodipodi:namedview
     id="base"
     pagecolor="#ffffff"
     bordercolor="#666666"
     borderopacity="1.0"
     inkscape:pageopacity="0.0"
     inkscape:pageshadow="2"
     inkscape:zoom="1.979899"
     inkscape:cx="70.11535"
     inkscape:cy="139.20952"
     inkscape:document-units="px"
     inkscape:current-layer="layer1"
     showgrid="false"
     fit-margin-top="0"
     fit-margin-left="0"
     fit-margin-right="0"
     fit-margin-bottom="0"
     inkscape:window-width="476"
     inkscape:window-height="1039"
     inkscape:window-x="768"
     inkscape:window-y="39"
     inkscape:window-maximized="0" />
  <metadata
     id="metadata7">
    <rdf:RDF>
      <cc:Work
         rdf:about="">
        <dc:format>image/svg+xml</dc:format>
        <dc:type
           rdf:resource="http://purl.org/dc/dcmitype/StillImage" />
        <dc:title></dc:title>
      </cc:Work>
    </rdf:RDF>
  </metadata>
  <g
     inkscape:label="Calque 1"
     inkscape:groupmode="layer"
     id="layer1"
     transform="translate(-369.39861,-456.1381)">
    <g
       transform="translate(242.7568,37.429434)"
       id="g3809">
      <path
         inkscape:connector-curvature="0"
         style="fill:#5f5f5f;fill-opacity:1;stroke:none"
         d="m -159.5,6 c -1.08695,0.066622 -2.17611,0.4358375 -3.125,1.15625 -1.50716,1.21361 -2.23295,2.97098 -2.15625,4.75 0.13431,2.10415 0.2279,4.09679 0.8125,5.9375 0.9571,3.01447 0.96183,4.36998 1.3125,6.53125 l 0,134.0625 6.9375,0 0,-134.0625 c 0.35066,-2.16127 0.35554,-3.51678 1.3125,-6.53125 0.58459,-1.84071 0.68115,-3.84475 0.8125,-5.90625 0.0751,-1.30467 -0.2808,-2.63719 -1.125,-3.75 C -155.88746,6.6469938 -157.68842,5.8889638 -159.5,6 z"
         id="path3803"
         transform="translate(291.42856,412.71933)" />
      <path
         inkscape:connector-curvature="0"
         clip-path="url(#clipPath3805)"
         style="fill:#5f5f5f;fill-opacity:1;stroke:#1e1d19;stroke-opacity:1;filter:url(#filter3799)"
         d="m -159.5,6 c -1.08695,0.066622 -2.17611,0.4358375 -3.125,1.15625 -1.50716,1.21361 -2.23295,2.97098 -2.15625,4.75 0.13431,2.10415 0.2279,4.09679 0.8125,5.9375 0.9571,3.01447 0.96183,4.36998 1.3125,6.53125 l 0,134.0625 6.9375,0 0,-134.0625 c 0.35066,-2.16127 0.35554,-3.51678 1.3125,-6.53125 0.58459,-1.84071 0.68115,-3.84475 0.8125,-5.90625 0.0751,-1.30467 -0.2808,-2.63719 -1.125,-3.75 C -155.88746,6.6469938 -157.68842,5.8889638 -159.5,6 z"
         id="path3793"
         transform="translate(291.42856,412.71933)" />
    </g>
  </g>
</svg>
